<svg width="397" height="530" viewBox="0 0 397 530" fill="none" xmlns="http://www.w3.org/2000/svg">
<rect x="132.435" y="264.565" width="132.282" height="132.282" fill="#FFF0E5"/>
<rect x="264.718" y="264.565" width="132.282" height="132.282" fill="#FFF0E5"/>
<rect x="135" y="396.847" width="132.282" height="132.282" fill="#FFF0E5"/>
<rect x="264.718" y="1.52588e-05" width="132.282" height="132.282" fill="#FFF0E5"/>
<rect x="132.435" y="1.52588e-05" width="132.282" height="132.282" fill="#5D657F"/>
<path d="M0.152645 3.5769e-06C0.152644 17.3716 3.57422 34.5731 10.222 50.6223C16.8698 66.6715 26.6137 81.2542 38.8973 93.5378C51.1808 105.821 65.7635 115.565 81.8128 122.213C97.862 128.861 115.063 132.282 132.435 132.282L132.435 1.51414e-05L0.152645 3.5769e-06Z" fill="#FFF0E5"/>
<path d="M0.152645 264.565C0.152644 281.936 3.57422 299.138 10.222 315.187C16.8698 331.236 26.6137 345.819 38.8973 358.103C51.1808 370.386 65.7635 380.13 81.8128 386.778C97.862 393.426 115.063 396.847 132.435 396.847L132.435 264.565L0.152645 264.565Z" fill="#FFBDAE"/>
<path d="M263.141 529.13C263.141 511.758 259.72 494.557 253.072 478.507C246.424 462.458 236.68 447.876 224.397 435.592C212.113 423.308 197.531 413.565 181.481 406.917C165.432 400.269 148.231 396.847 130.859 396.847V529.13H263.141Z" fill="#E3FFB7"/>
<path d="M263.142 529.13C280.513 529.13 297.715 525.708 313.764 519.06C329.813 512.413 344.396 502.669 356.679 490.385C368.963 478.102 378.707 463.519 385.355 447.47C392.002 431.42 395.424 414.219 395.424 396.847L263.142 396.847L263.142 529.13Z" fill="#FFBDAE"/>
<path d="M264.717 132.282C264.717 114.911 261.296 97.7094 254.648 81.6601C248 65.6109 238.256 51.0282 225.973 38.7446C213.689 26.4611 199.107 16.7172 183.057 10.0694C167.008 3.42158 149.807 -7.59336e-07 132.435 0V132.282H264.717Z" fill="#FFF0E5"/>
<path d="M264.717 396.847C264.717 379.476 261.296 362.274 254.648 346.225C248 330.176 238.256 315.593 225.973 303.309C213.689 291.026 199.107 281.282 183.057 274.634C167.008 267.986 149.807 264.565 132.435 264.565V396.847H264.717Z" fill="#5D657F"/>
<rect x="132.435" y="132.282" width="132.282" height="132.282" fill="#E3FFB7"/>
<rect x="264.718" y="132.282" width="132.282" height="132.282" fill="#E3FFB7"/>
<path d="M397 132.282C397 114.911 393.578 97.7094 386.931 81.6601C380.283 65.6109 370.539 51.0282 358.255 38.7446C345.972 26.4611 331.389 16.7172 315.34 10.0694C299.291 3.42158 282.089 -7.59336e-07 264.718 0V132.282H397Z" fill="#E3FFB7"/>
<path d="M132.435 132.282C115.063 132.282 97.862 135.704 81.8127 142.352C65.7635 149 51.1808 158.744 38.8972 171.027C26.6136 183.311 16.8698 197.893 10.222 213.943C3.57417 229.992 0.152586 247.193 0.152588 264.565L132.435 264.565L132.435 132.282Z" fill="#E3FFB7"/>
<path d="M397 264.565C379.628 264.565 362.427 267.986 346.378 274.634C330.328 281.282 315.746 291.026 303.462 303.309C291.179 315.593 281.435 330.176 274.787 346.225C268.139 362.274 264.718 379.476 264.718 396.847L397 396.847L397 264.565Z" fill="#5D657F"/>
<path d="M397 264.565C397 247.193 393.578 229.992 386.931 213.943C380.283 197.893 370.539 183.311 358.255 171.027C345.972 158.743 331.389 149 315.34 142.352C299.291 135.704 282.089 132.282 264.718 132.282V264.565H397Z" fill="#FFBDAE"/>
<path d="M132.435 264.565C149.807 264.565 167.008 261.143 183.057 254.495C199.107 247.848 213.689 238.104 225.973 225.82C238.256 213.537 248 198.954 254.648 182.905C261.296 166.855 264.718 149.654 264.718 132.282L132.435 132.282L132.435 264.565Z" fill="#5D657F"/>
</svg>
