<svg width="36" height="36" viewBox="0 0 36 36" fill="none" xmlns="http://www.w3.org/2000/svg">
<g clip-path="url(#clip0)">
<path d="M0.252502 17.4307V17.3812C0.698047 11.6386 2.77725 7.33166 6.39112 4.60889C9.95547 1.83661 13.8169 0.499977 18.0248 0.499977C22.4307 0.450472 26.5396 1.93562 30.203 4.90592C33.9159 7.82671 35.7476 12.1831 35.7476 17.8267V18.1732C35.7476 23.8663 33.9159 28.1237 30.203 31.0445C26.4901 34.0148 22.3812 35.5 17.9753 35.5H17.7773C13.4703 35.4505 9.50993 33.9653 5.84656 30.995C2.1832 28.0742 0.302007 23.5693 0.252502 17.4307ZM16.9357 9.65839V1.83661H15.7476C15.5 2.13364 15.302 2.48018 15.104 2.7772C14.906 3.07423 14.7079 3.37126 14.5099 3.7178C14.3119 4.01483 14.0644 4.41087 13.9159 4.7079C13.7178 5.00493 13.5693 5.30196 13.4208 5.64849C13.1238 6.14354 12.8763 6.63859 12.6782 7.08414C12.4307 7.52968 12.2327 7.97522 12.0842 8.37126C12.3812 8.56928 12.7277 8.81681 13.1238 8.96532C13.5693 9.11384 14.0149 9.26235 14.4604 9.36136C14.9555 9.46037 15.401 9.50988 15.7971 9.55938C16.2426 9.60889 16.6386 9.65839 16.9357 9.65839ZM19.0149 1.83661V9.60889C19.2624 9.60889 19.5594 9.65839 19.8565 9.60889C20.1535 9.60889 20.5 9.55938 20.7971 9.50988C21.3416 9.41087 21.9852 9.26235 22.4802 9.11384C23.0248 8.91582 23.5198 8.66829 23.8664 8.37126C23.2723 6.93562 22.6287 5.79701 21.9852 4.7079C21.3416 3.61879 20.599 2.67819 19.807 1.88612V1.83661H19.0149ZM13.6683 2.28216V2.23265C13.3218 2.38117 12.9753 2.62869 12.5792 2.7772C12.2327 2.92572 11.7872 3.12374 11.4406 3.32176C10.7476 3.66829 10.0545 4.06433 9.36141 4.50988C8.71785 4.95542 8.07428 5.45047 7.52973 5.94552C7.72775 6.14354 7.97527 6.34156 8.17329 6.49008C8.37131 6.63859 8.61884 6.83661 8.86636 7.03463C9.06438 7.13364 9.31191 7.28216 9.55943 7.48018C9.80696 7.62869 10.104 7.82671 10.401 8.02473C10.7971 7.13364 11.1931 6.19305 11.6881 5.35146C12.1832 4.46037 12.7277 3.61879 13.2723 2.87621C13.3218 2.7772 13.3713 2.67819 13.4703 2.57919C13.5198 2.52968 13.5693 2.38117 13.6683 2.28216ZM28.8169 5.94552V5.89602C27.5792 4.95542 26.4901 4.16334 25.401 3.66829C24.3119 3.17324 23.2228 2.67819 22.2327 2.28216C23.0248 3.07423 23.7178 4.06433 24.1634 5.00493C24.6584 5.99503 25.1535 7.03463 25.5495 8.02473C25.7476 7.92572 25.9951 7.82671 26.2921 7.62869C26.5396 7.48018 26.8862 7.33166 27.1832 7.18315C27.4802 6.98513 27.7278 6.78711 28.0248 6.58909C28.3218 6.34156 28.6188 6.14354 28.8169 5.94552ZM27.9753 16.9851H33.6683C33.6683 15.1534 33.2723 13.4208 32.5297 11.6386C31.8367 9.90592 30.8466 8.47027 29.6089 7.23265V7.18315C29.3614 7.57919 29.0149 7.92572 28.6683 8.17324C28.2723 8.42077 27.9258 8.61879 27.5297 8.81681C27.2822 8.96532 27.0347 9.16334 26.7872 9.26235C26.5396 9.41087 26.1931 9.50988 25.9456 9.65839C26.1436 10.0544 26.3416 10.5 26.5396 10.896C26.6881 11.3416 26.9357 11.8366 27.0347 12.2822C27.3317 13.0742 27.5297 13.9158 27.7278 14.7574C27.8763 15.5 27.9753 16.2921 27.9753 16.9851ZM10.0545 9.65839V9.60889C9.65844 9.41087 9.2129 9.26235 8.86636 9.06433C8.51983 8.81681 8.17329 8.56928 7.87627 8.37126C7.57924 8.22275 7.28221 8.02473 7.03468 7.82671C6.78716 7.62869 6.58914 7.43067 6.39112 7.23265C5.10399 8.47027 4.16339 9.85641 3.56933 11.4901C2.92577 13.1237 2.48023 14.9554 2.28221 16.9356H8.37131C8.37131 15.5495 8.56933 14.2128 8.91587 12.8762C9.2129 11.4901 9.65844 10.4505 10.0545 9.65839ZM16.9357 16.9356V11.2426C16.5396 11.2921 16.0446 11.2921 15.599 11.2426C15.104 11.193 14.6089 11.0445 14.1634 10.896C13.7674 10.797 13.2723 10.698 12.8763 10.5495C12.4307 10.4505 11.9852 10.2525 11.6386 10.0544C11.3416 10.5495 11.0941 11.1435 10.8961 11.7871C10.6485 12.3812 10.5 13.0247 10.3515 13.6188C10.2525 14.2128 10.203 14.8564 10.1535 15.401C10.104 15.9455 10.0545 16.4901 10.0545 16.9356H16.9357ZM19.0149 11.3416V16.9356H26.3416C26.3416 16.6386 26.3416 16.2921 26.2921 15.896C26.1931 15.5495 26.1436 15.1039 26.0941 14.7079C25.9456 14.1138 25.7971 13.4703 25.599 12.8762C25.401 12.3317 25.203 11.7871 24.9555 11.3416C24.8565 11.094 24.7575 10.797 24.6584 10.599C24.5099 10.3515 24.3614 10.2029 24.2624 10.0544C23.7178 10.4505 22.9753 10.698 22.0842 10.896C21.2426 11.094 20.2525 11.2921 19.3614 11.3416H19.0149ZM8.37131 18.5693H2.28221C2.28221 19.4109 2.43072 20.3515 2.67825 21.4901C2.92577 22.6782 3.42082 23.7673 3.96537 24.9554C4.2129 25.5495 4.50993 26.1435 4.80696 26.7376C5.15349 27.2822 5.54953 27.8762 5.94557 28.4208C6.2426 28.2227 6.53963 28.0742 6.78716 27.9257C7.08419 27.7772 7.43072 27.5792 7.72775 27.4307C8.07428 27.2822 8.42082 27.1336 8.81686 26.9356C9.16339 26.7871 9.60894 26.5891 10.0545 26.3911C9.65844 25.1534 9.2129 23.9653 8.91587 22.6287C8.56933 21.3416 8.37131 20.0544 8.37131 18.6188V18.5693ZM16.9357 24.3614V18.5693H10.0545C10.0545 18.9653 10.104 19.5594 10.203 20.1534C10.2525 20.7475 10.401 21.3911 10.5 22.0346C10.698 22.7277 10.8466 23.4208 11.0446 24.0148C11.2426 24.6089 11.4406 25.1039 11.6386 25.5495C12.5297 25.2029 13.4208 24.9554 14.0149 24.8069C14.6584 24.6089 15.2525 24.4604 15.8466 24.4109H16.3911C16.5891 24.3614 16.7872 24.3614 16.9357 24.3614ZM19.0149 18.5693V24.3119C19.3614 24.3614 19.7575 24.4109 20.1535 24.4604C20.599 24.5099 21.1436 24.6089 21.5891 24.7079L22.3317 24.8564C22.5792 24.9554 22.8763 25.0049 23.1238 25.0544C23.4208 25.1534 23.7178 25.2029 24.0149 25.302C24.2624 25.401 24.5099 25.4505 24.7079 25.5495C25.3515 23.9158 25.7476 22.5792 25.9951 21.4406C26.2426 20.3515 26.3416 19.4109 26.3416 18.6188V18.5693H19.0149ZM33.6683 18.6188V18.5693H27.9753V18.8663C27.9258 19.8069 27.7773 20.896 27.5792 22.0346C27.3812 23.1237 26.9357 24.4109 26.3416 25.995C27.1337 26.3911 27.8763 26.7871 28.4703 27.1831C29.0644 27.5792 29.6089 28.0247 30.005 28.4208C30.8466 27.5792 31.5891 26.4406 32.2327 24.9554C32.8763 23.5198 33.3218 22.0346 33.5693 20.4505C33.6188 20.1534 33.6188 19.8564 33.6683 19.5594V18.6188ZM16.9357 33.6683V25.9455C15.698 26.1435 14.6584 26.3911 13.8664 26.5891C13.0743 26.7871 12.4802 26.9851 12.0842 27.1831C12.3812 27.9257 12.6782 28.5693 12.9753 29.1633C13.2723 29.7079 13.6188 30.302 13.9159 30.797C14.0149 30.995 14.2129 31.193 14.3614 31.4406C14.5099 31.6386 14.6089 31.8861 14.7575 32.0841C14.906 32.3317 15.0545 32.6287 15.203 32.9257C15.401 33.1732 15.5495 33.4703 15.7476 33.6683H16.9357ZM19.0149 33.6683H20.1535C20.599 33.3218 21.0446 32.8267 21.3911 32.2822C21.7872 31.7376 22.2327 31.094 22.5297 30.5495C22.8763 29.9059 23.2228 29.3119 23.5198 28.7178C23.8169 28.1237 24.0644 27.5792 24.2624 27.1831C23.7178 26.9851 22.9753 26.7871 22.2327 26.5891C21.4901 26.3911 20.4505 26.193 19.0149 25.995V33.6683ZM28.8169 29.6089V29.5594C28.7178 29.4109 28.5198 29.2128 28.3713 29.0643C28.2228 28.9158 27.9753 28.7178 27.7278 28.5693C27.5297 28.4208 27.2822 28.2723 26.9852 28.1237C26.6881 27.9752 26.2921 27.7772 25.9456 27.5792C25.7476 27.9752 25.401 28.6683 24.906 29.6089C24.4604 30.5495 23.6683 31.6881 22.6782 32.9257C23.9159 32.7277 25.005 32.2822 25.9951 31.6881C27.0842 31.1435 28.0248 30.401 28.8169 29.6089ZM10.401 28.0247V27.9752C10.0545 28.1732 9.50993 28.4208 8.96537 28.6683C8.37131 28.9158 7.72775 29.2128 7.13369 29.6089C7.48023 29.9059 7.82676 30.2029 8.12379 30.401C8.42082 30.6485 8.76735 30.8465 9.06438 31.0445C9.60894 31.3911 10.2525 31.7376 10.8961 32.0346C11.5396 32.3317 12.3317 32.6287 13.3218 32.9257C12.9753 32.5297 12.7277 32.0346 12.4802 31.6386C12.2327 31.2425 11.9357 30.8465 11.6881 30.4505C11.4406 30.0544 11.2426 29.6089 11.0446 29.2128C10.7971 28.8168 10.599 28.4208 10.401 28.0247Z" fill="#2F3547"/>
</g>
<defs>
<clipPath id="clip0">
<rect width="35.5" height="35" fill="white" transform="translate(0.25 0.5)"/>
</clipPath>
</defs>
</svg>
