<svg width="36" height="36" viewBox="0 0 36 36" fill="none" xmlns="http://www.w3.org/2000/svg">
<path d="M9.25 17.4264V26.75H18.5736L16.6292 24.8056H11.1944V19.3708L9.25 17.4264Z" fill="#2F3547"/>
<path d="M34.4014 31.893L31.6111 29.0639V31.6111H4.38889V27.5764H6.33333V26.0208H4.38889V19.5555H6.33333V18H4.38889V11.7778H6.33333V10.2222H4.38889V4.78748L19.8861 20.1972V17.4555L4.10694 1.75415C3.97096 1.61704 3.79722 1.52353 3.60788 1.48555C3.41855 1.44756 3.22219 1.46682 3.04384 1.54087C2.86549 1.61493 2.71323 1.74041 2.60648 1.90133C2.49973 2.06225 2.44332 2.25132 2.44444 2.44443V32.5833C2.44444 32.8412 2.54687 33.0885 2.7292 33.2708C2.91153 33.4531 3.15882 33.5555 3.41667 33.5555H33.7111C33.9042 33.5567 34.0933 33.5003 34.2542 33.3935C34.4151 33.2868 34.5406 33.1345 34.6147 32.9561C34.6887 32.7778 34.708 32.5814 34.67 32.3921C34.632 32.2028 34.5385 32.029 34.4014 31.893Z" fill="#2F3547"/>
<path d="M23.8333 29.6667H27.7222C28.2379 29.6667 28.7325 29.4618 29.0972 29.0971C29.4618 28.7325 29.6667 28.2379 29.6667 27.7222V8.95832L27.4306 4.84582C27.2576 4.5462 27.0079 4.29815 26.7071 4.12725C26.4063 3.95635 26.0654 3.86879 25.7194 3.8736C25.3657 3.87641 25.0194 3.97567 24.7179 4.16069C24.4164 4.34571 24.1711 4.60949 24.0083 4.9236L21.8889 8.97777V27.7222C21.8889 28.2379 22.0938 28.7325 22.4584 29.0971C22.8231 29.4618 23.3176 29.6667 23.8333 29.6667ZM23.8333 9.44443L25.7194 5.77916L27.7222 9.45416V23.8333H23.8333V9.44443ZM23.8333 25.418H27.7222V27.7903H23.8333V25.418Z" fill="#2F3547"/>
</svg>
